<?xml version="1.0" encoding="utf-8"?>
<svg xmlns="http://www.w3.org/2000/svg" width="303.75" viewBox="30 105 303.75 165" height="165" version="1.0">
  <defs>
    <clipPath id="a">
      <path d="M 116 104.0625 L 260 104.0625 L 260 203.8125 L 116 203.8125 Z M 116 104.0625" />
    </clipPath>
    <clipPath id="b">
      <path d="M 114.46875 165 L 132 165 L 132 203 L 114.46875 203 Z M 114.46875 165" />
    </clipPath>
    <clipPath id="c">
      <path d="M 254 111 L 260.71875 111 L 260.71875 117 L 254 117 Z M 254 111" />
    </clipPath>
  </defs>
  <g clip-path="url(#a)">
    <path fill="#FFF" d="M 258.042969 118.773438 C 254.902344 122.820312 251.398438 126.472656 247.035156 129.234375 C 241.976562 132.460938 236.355469 134.464844 230.769531 136.539062 C 228.488281 137.394531 226.867188 139.234375 225.414062 141.144531 C 220.257812 147.917969 215.792969 155.023438 211.5625 162.328125 C 210.371094 164.367188 209.25 166.40625 208.089844 168.445312 C 206.371094 171.535156 204.886719 174.761719 203.53125 178.015625 C 200.71875 184.757812 198.570312 191.800781 196.457031 198.773438 C 196.058594 200.121094 195.296875 201.601562 194.273438 202.621094 C 191.5625 205.285156 187.496094 202.71875 186.140625 199.824219 C 185.511719 198.476562 185.480469 196.929688 185.546875 195.449219 C 185.808594 184.132812 186.867188 168.542969 173.214844 164.070312 C 169.082031 162.722656 164.621094 162.785156 160.324219 163.378906 C 156.621094 163.871094 152.851562 164.792969 149.976562 167.160156 C 140.222656 175.285156 146.371094 189.757812 147 200.121094 C 147.03125 200.582031 147.03125 201.074219 146.902344 201.503906 C 146.601562 202.457031 145.644531 203.082031 144.652344 203.246094 C 143.230469 203.476562 141.480469 203.179688 140.257812 202.390625 C 137.183594 200.417969 136.355469 196.207031 135.03125 193.082031 C 133.808594 190.152344 132.785156 187.160156 131.792969 184.167969 C 130.667969 180.679688 129.609375 177.160156 128.386719 173.675781 C 127.496094 171.042969 126.4375 168.476562 125.347656 165.910156 C 122.835938 159.992188 120.15625 154.167969 118.570312 147.984375 C 116.816406 141.207031 115.992188 134.957031 116.816406 127.953125 C 117.117188 125.519531 117.480469 123.085938 118.207031 120.75 C 119.03125 118.148438 120.453125 116.339844 122.105469 114.234375 C 122.570312 113.644531 123.265625 112.820312 124.058594 112 C 125.578125 110.484375 128.089844 111.933594 127.5625 114.003906 C 127.132812 115.617188 126.503906 117.230469 126.171875 118.25 C 125.050781 121.570312 124.488281 124.992188 127.496094 127.558594 C 127.957031 127.953125 128.488281 128.3125 129.015625 128.609375 C 131.628906 130.125 134.964844 130.648438 137.875 131.011719 C 143.066406 131.667969 148.324219 131.242188 153.578125 131.242188 L 154.304688 131.242188 C 158.074219 131.273438 161.84375 131.210938 165.644531 131.078125 C 171.960938 130.8125 178.238281 130.1875 184.390625 128.9375 C 196.917969 126.375 208.71875 120.289062 218.074219 111.605469 C 220.820312 109.070312 223.464844 106.210938 226.96875 104.894531 C 232.257812 102.921875 238.109375 104.828125 243.398438 106.769531 C 247.792969 108.347656 252.191406 109.960938 256.621094 111.539062 C 257.382812 111.800781 258.042969 112.296875 258.472656 112.984375 C 259.828125 114.992188 259.199219 117.328125 258.042969 118.773438 Z M 258.042969 118.773438" />
  </g>
  <g clip-path="url(#b)">
    <path fill="#FFF" d="M 131.890625 184.199219 C 130.867188 187.03125 129.777344 189.824219 128.585938 192.554688 C 126.503906 197.390625 124.984375 202.984375 118.667969 202.71875 C 117.808594 202.6875 116.949219 202.523438 116.253906 201.996094 C 112.386719 199.132812 115.890625 193.410156 117.082031 189.628906 C 118.304688 185.714844 119.761719 181.898438 121.148438 178.050781 C 121.742188 176.40625 122.304688 174.726562 122.835938 173.050781 C 123.332031 171.40625 124.355469 168.410156 125.480469 165.945312 C 126.570312 168.511719 127.59375 171.074219 128.519531 173.707031 C 129.675781 177.195312 130.734375 180.714844 131.890625 184.199219 Z M 131.890625 184.199219" />
  </g>
  <path fill="#FFF" d="M 223.859375 201.796875 C 223.132812 202.390625 222.140625 202.589844 221.214844 202.6875 C 214.242188 203.246094 212.289062 197.226562 209.710938 192.027344 C 207.859375 188.277344 206.140625 184.429688 204.585938 180.550781 C 204.257812 179.726562 203.894531 178.90625 203.5625 178.050781 C 204.917969 174.792969 206.40625 171.601562 208.125 168.476562 C 209.25 166.40625 210.40625 164.367188 211.597656 162.359375 C 213.082031 165.089844 214.472656 168.609375 215.132812 170.484375 C 215.792969 172.292969 216.488281 174.070312 217.214844 175.84375 C 218.933594 179.988281 220.753906 184.101562 222.308594 188.3125 C 223.828125 192.425781 228.027344 198.507812 223.859375 201.796875 Z M 223.859375 201.796875" />
  <g clip-path="url(#c)">
    <path fill="#48473E" d="M 259.730469 112.128906 C 259.265625 111.472656 258.441406 111.046875 257.613281 111.046875 C 256.785156 111.046875 255.960938 111.472656 255.496094 112.128906 C 255.300781 112.425781 255.132812 112.753906 255 113.117188 C 254.738281 113.742188 254.472656 114.433594 254.671875 115.089844 C 254.933594 115.945312 255.894531 116.375 256.785156 116.605469 C 257.878906 116.902344 259.894531 117.164062 260.554688 115.914062 C 261.050781 115.027344 260.289062 112.921875 259.730469 112.128906 Z M 259.730469 112.128906" />
  </g>
  <path fill="#48473E" d="M 235.496094 116.441406 C 235.035156 116.441406 234.570312 116.339844 234.109375 116.175781 C 233.214844 115.847656 232.421875 115.222656 231.828125 114.402344 C 231.695312 114.203125 231.726562 113.941406 231.925781 113.808594 C 232.125 113.675781 232.390625 113.710938 232.523438 113.90625 C 233.019531 114.597656 233.679688 115.125 234.40625 115.386719 C 235.167969 115.652344 236.027344 115.652344 236.6875 115.320312 C 237.613281 114.859375 238.207031 113.777344 238.042969 112.753906 C 238.007812 112.527344 238.175781 112.296875 238.40625 112.261719 C 238.636719 112.230469 238.867188 112.394531 238.902344 112.625 C 239.101562 114.003906 238.308594 115.453125 237.050781 116.078125 C 236.589844 116.308594 236.027344 116.441406 235.496094 116.441406 Z M 235.496094 116.441406" />
  <path d="M 217.941406 113.511719 C 215.53125 116.539062 213.082031 119.628906 211.894531 123.316406 C 210.933594 126.273438 210.835938 129.5 211.332031 132.589844 C 211.597656 134.234375 212.058594 135.847656 212.953125 137.261719 C 213.777344 138.542969 214.96875 139.5625 216.355469 140.1875 C 217.183594 140.550781 218.109375 140.8125 218.96875 140.582031 C 219.628906 140.417969 220.222656 139.957031 220.753906 139.53125 C 222.570312 138.117188 224.457031 136.636719 225.414062 134.5625 C 226.074219 133.148438 226.242188 131.539062 226.40625 129.992188 C 226.671875 127.460938 226.933594 124.925781 227.167969 122.394531 C 227.429688 119.761719 227.695312 117.128906 227.496094 114.53125 C 227.332031 112.527344 227 107.820312 224.125 107.886719 C 221.644531 107.921875 219.332031 111.734375 217.941406 113.511719 Z M 217.941406 113.511719" />
  <path d="M 124.519531 154.003906 C 124.453125 154.300781 124.421875 154.628906 124.421875 154.957031 C 124.488281 155.8125 125.015625 156.601562 125.644531 157.195312 C 126.902344 158.410156 128.386719 159.695312 130.105469 160.121094 C 132.125 160.648438 134.339844 159.957031 135.992188 158.675781 C 137.710938 157.359375 139 155.417969 139.859375 153.445312 C 140.058594 152.953125 140.257812 152.425781 140.222656 151.898438 C 140.191406 151.207031 139.792969 150.617188 139.398438 150.089844 C 137.480469 147.722656 133.875 145.648438 130.769531 146.570312 C 127.824219 147.425781 125.84375 150.417969 124.785156 153.148438 C 124.6875 153.414062 124.585938 153.707031 124.519531 154.003906 Z M 124.519531 154.003906" />
  <path d="M 172.652344 143.148438 C 171.828125 146.109375 169.28125 148.378906 166.4375 149.5625 C 163.59375 150.746094 160.453125 151.011719 157.347656 151.109375 C 154.734375 151.175781 151.894531 151.042969 149.808594 149.464844 C 147.332031 147.589844 146.570312 144.167969 146.769531 141.078125 C 146.800781 140.386719 146.902344 139.695312 147.164062 139.070312 C 147.460938 138.414062 147.925781 137.886719 148.421875 137.359375 C 149.84375 135.8125 151.496094 134.300781 152.652344 132.558594 C 152.984375 132.097656 153.246094 131.667969 153.578125 131.273438 L 154.304688 131.273438 C 158.074219 131.308594 161.84375 131.242188 165.644531 131.109375 C 165.875 131.308594 166.140625 131.503906 166.371094 131.703125 C 167.363281 132.492188 168.488281 133.117188 169.480469 133.9375 C 172.15625 136.144531 173.578125 139.859375 172.652344 143.148438 Z M 172.652344 143.148438" />
  <path d="M 184.222656 141.273438 C 183.5625 141.4375 182.902344 141.601562 182.339844 141.964844 C 181.511719 142.523438 181.117188 143.511719 180.71875 144.398438 C 180.390625 145.1875 180.058594 145.976562 179.726562 146.800781 C 179.230469 147.953125 178.769531 149.332031 179.429688 150.386719 C 180.023438 151.339844 181.25 151.601562 182.339844 151.765625 C 183.132812 151.898438 183.925781 152.03125 184.71875 152.164062 C 187.296875 152.589844 190.207031 152.953125 192.355469 151.4375 C 193.679688 150.515625 194.539062 148.972656 194.703125 147.359375 C 194.867188 145.746094 194.371094 144.136719 193.480469 142.789062 C 191.199219 139.367188 187.59375 140.453125 184.222656 141.273438 Z M 184.222656 141.273438" />
  <path d="M 178.339844 135.417969 C 177.875 135.980469 177.644531 136.734375 177.546875 137.457031 C 177.511719 137.6875 177.480469 137.953125 177.578125 138.183594 C 177.808594 138.808594 178.636719 138.90625 179.265625 138.90625 C 179.960938 138.90625 180.71875 138.90625 181.316406 138.511719 C 182.007812 138.050781 182.339844 137.0625 182.074219 136.273438 C 181.808594 135.417969 181.015625 134.859375 180.191406 134.597656 C 179.5625 134.367188 178.734375 134.925781 178.339844 135.417969 Z M 178.339844 135.417969" />
  <path d="M 137.578125 142.492188 C 138.140625 143.117188 138.902344 143.476562 139.660156 143.839844 C 140.355469 144.167969 141.347656 144.464844 141.808594 143.839844 C 142.007812 143.542969 142.007812 143.148438 141.976562 142.789062 C 141.875 141.078125 142.105469 138.019531 139.527344 138.28125 C 137.480469 138.480469 136.089844 140.878906 137.578125 142.492188 Z M 137.578125 142.492188" />
  <path d="M 151.859375 153.773438 C 151.761719 153.640625 151.660156 153.511719 151.527344 153.378906 C 151.164062 153.015625 150.703125 152.753906 150.238281 152.523438 C 149.675781 152.226562 149.148438 152.164062 148.554688 152.390625 C 147.792969 152.6875 147.097656 153.214844 146.636719 153.871094 C 146.207031 154.496094 145.910156 155.582031 146.4375 156.273438 C 146.601562 156.503906 146.867188 156.703125 147.097656 156.832031 C 147.925781 157.292969 149.050781 157.589844 150.007812 157.558594 C 150.902344 157.523438 151.792969 157.097656 152.222656 156.339844 C 152.652344 155.515625 152.421875 154.496094 151.859375 153.773438 Z M 151.859375 153.773438" />
  <path d="M 171.363281 153.378906 C 171.59375 154.203125 172.257812 154.828125 172.882812 155.386719 C 173.644531 156.042969 174.4375 156.765625 175.398438 156.964844 C 177.015625 157.328125 178.800781 156.042969 178.96875 154.398438 C 179.101562 153.214844 178.4375 152.0625 177.746094 151.078125 C 176.851562 149.828125 175.265625 148.214844 173.613281 148.871094 C 172.191406 149.433594 170.96875 151.964844 171.363281 153.378906 Z M 171.363281 153.378906" />
  <g fill="#48473E">
    <g>
      <g>
        <path d="M 9.21875 -19.117188 C 7.804688 -19.117188 6.566406 -18.8125 5.503906 -18.257812 C 4.445312 -17.703125 3.585938 -16.945312 2.878906 -16.035156 C 2.171875 -15.101562 1.640625 -14.039062 1.289062 -12.878906 C 0.933594 -11.691406 0.757812 -10.480469 0.757812 -9.269531 C 0.757812 -8.003906 0.933594 -6.792969 1.289062 -5.632812 C 1.640625 -4.445312 2.171875 -3.382812 2.878906 -2.476562 C 3.585938 -1.539062 4.445312 -0.78125 5.503906 -0.226562 C 6.566406 0.328125 7.804688 0.605469 9.21875 0.605469 C 10.632812 0.605469 11.84375 0.328125 12.90625 -0.226562 C 13.964844 -0.78125 14.847656 -1.539062 15.554688 -2.476562 C 16.261719 -3.382812 16.792969 -4.445312 17.148438 -5.632812 C 17.5 -6.792969 17.675781 -8.003906 17.675781 -9.269531 C 17.675781 -10.480469 17.5 -11.691406 17.148438 -12.878906 C 16.792969 -14.039062 16.261719 -15.101562 15.554688 -16.035156 C 14.847656 -16.945312 13.964844 -17.703125 12.90625 -18.257812 C 11.84375 -18.8125 10.632812 -19.117188 9.21875 -19.117188 Z M 9.21875 -2.222656 C 8.863281 -2.222656 8.511719 -2.347656 8.183594 -2.625 C 7.828125 -2.878906 7.527344 -3.308594 7.273438 -3.890625 C 6.996094 -4.445312 6.769531 -5.175781 6.617188 -6.0625 C 6.464844 -6.945312 6.390625 -8.003906 6.390625 -9.269531 C 6.390625 -10.480469 6.464844 -11.539062 6.617188 -12.449219 C 6.769531 -13.332031 6.996094 -14.066406 7.273438 -14.648438 C 7.527344 -15.203125 7.828125 -15.632812 8.183594 -15.910156 C 8.511719 -16.164062 8.863281 -16.3125 9.21875 -16.3125 C 9.570312 -16.3125 9.898438 -16.164062 10.253906 -15.910156 C 10.582031 -15.632812 10.882812 -15.203125 11.160156 -14.648438 C 11.414062 -14.066406 11.640625 -13.332031 11.792969 -12.449219 C 11.945312 -11.539062 12.046875 -10.480469 12.046875 -9.269531 C 12.046875 -8.003906 11.945312 -6.945312 11.792969 -6.0625 C 11.640625 -5.175781 11.414062 -4.445312 11.160156 -3.890625 C 10.882812 -3.308594 10.582031 -2.878906 10.253906 -2.625 C 9.898438 -2.347656 9.570312 -2.222656 9.21875 -2.222656 Z M 9.21875 -2.222656" transform="translate(30.564 240.186)" />
      </g>
    </g>
  </g>
  <g fill="#48473E">
    <g>
      <g>
        <path d="M 11.339844 0 L 17.273438 0 L 11.515625 -10.101562 L 16.617188 -18.511719 L 11.996094 -18.511719 L 9.269531 -14.015625 L 6.71875 -18.511719 L 0.757812 -18.511719 L 6.210938 -8.964844 L 0.757812 0 L 5.378906 0 L 8.460938 -5.050781 Z M 11.339844 0" transform="translate(53.52 240.186)" />
      </g>
    </g>
  </g>
  <g fill="#48473E">
    <g>
      <g>
        <path d="M 16.617188 -18.511719 L 12.652344 -18.511719 C 12.625 -18.460938 12.625 -18.460938 12.652344 -18.484375 C 12.652344 -18.511719 12.652344 -18.511719 12.625 -18.460938 C 12.601562 -18.410156 12.550781 -18.257812 12.449219 -18.054688 C 12.347656 -17.855469 12.199219 -17.5 11.996094 -16.996094 C 11.792969 -16.492188 11.492188 -15.785156 11.113281 -14.925781 C 10.734375 -14.039062 10.253906 -12.90625 9.671875 -11.539062 C 9.066406 -12.90625 8.585938 -14.039062 8.234375 -14.925781 C 7.855469 -15.785156 7.550781 -16.492188 7.347656 -16.996094 C 7.121094 -17.5 6.96875 -17.855469 6.894531 -18.054688 C 6.792969 -18.257812 6.742188 -18.410156 6.71875 -18.460938 C 6.691406 -18.511719 6.691406 -18.511719 6.71875 -18.484375 C 6.71875 -18.460938 6.71875 -18.460938 6.71875 -18.511719 L 0.757812 -18.511719 L 6.035156 -6.109375 L 6.035156 0 L 11.339844 0 L 11.339844 -6.109375 Z M 16.617188 -18.511719" transform="translate(76.07 240.186)" />
      </g>
    </g>
  </g>
  <g fill="#48473E">
    <g>
      <g>
        <path d="M 10.429688 -14.546875 L 15.050781 -14.546875 L 14.394531 -18.511719 L 1.160156 -18.511719 L 0.503906 -14.546875 L 5.125 -14.546875 L 5.125 0 L 10.429688 0 Z M 10.429688 -14.546875" transform="translate(97.965 240.186)" />
      </g>
    </g>
  </g>
  <g fill="#48473E">
    <g>
      <g>
        <path d="M 9.21875 -19.117188 C 7.804688 -19.117188 6.566406 -18.8125 5.503906 -18.257812 C 4.445312 -17.703125 3.585938 -16.945312 2.878906 -16.035156 C 2.171875 -15.101562 1.640625 -14.039062 1.289062 -12.878906 C 0.933594 -11.691406 0.757812 -10.480469 0.757812 -9.269531 C 0.757812 -8.003906 0.933594 -6.792969 1.289062 -5.632812 C 1.640625 -4.445312 2.171875 -3.382812 2.878906 -2.476562 C 3.585938 -1.539062 4.445312 -0.78125 5.503906 -0.226562 C 6.566406 0.328125 7.804688 0.605469 9.21875 0.605469 C 10.632812 0.605469 11.84375 0.328125 12.90625 -0.226562 C 13.964844 -0.78125 14.847656 -1.539062 15.554688 -2.476562 C 16.261719 -3.382812 16.792969 -4.445312 17.148438 -5.632812 C 17.5 -6.792969 17.675781 -8.003906 17.675781 -9.269531 C 17.675781 -10.480469 17.5 -11.691406 17.148438 -12.878906 C 16.792969 -14.039062 16.261719 -15.101562 15.554688 -16.035156 C 14.847656 -16.945312 13.964844 -17.703125 12.90625 -18.257812 C 11.84375 -18.8125 10.632812 -19.117188 9.21875 -19.117188 Z M 9.21875 -2.222656 C 8.863281 -2.222656 8.511719 -2.347656 8.183594 -2.625 C 7.828125 -2.878906 7.527344 -3.308594 7.273438 -3.890625 C 6.996094 -4.445312 6.769531 -5.175781 6.617188 -6.0625 C 6.464844 -6.945312 6.390625 -8.003906 6.390625 -9.269531 C 6.390625 -10.480469 6.464844 -11.539062 6.617188 -12.449219 C 6.769531 -13.332031 6.996094 -14.066406 7.273438 -14.648438 C 7.527344 -15.203125 7.828125 -15.632812 8.183594 -15.910156 C 8.511719 -16.164062 8.863281 -16.3125 9.21875 -16.3125 C 9.570312 -16.3125 9.898438 -16.164062 10.253906 -15.910156 C 10.582031 -15.632812 10.882812 -15.203125 11.160156 -14.648438 C 11.414062 -14.066406 11.640625 -13.332031 11.792969 -12.449219 C 11.945312 -11.539062 12.046875 -10.480469 12.046875 -9.269531 C 12.046875 -8.003906 11.945312 -6.945312 11.792969 -6.0625 C 11.640625 -5.175781 11.414062 -4.445312 11.160156 -3.890625 C 10.882812 -3.308594 10.582031 -2.878906 10.253906 -2.625 C 9.898438 -2.347656 9.570312 -2.222656 9.21875 -2.222656 Z M 9.21875 -2.222656" transform="translate(118.042 240.186)" />
      </g>
    </g>
  </g>
  <g fill="#48473E">
    <g>
      <g>
        <path d="M 10 -2.652344 C 9.34375 -2.652344 8.761719 -2.828125 8.257812 -3.207031 C 7.753906 -3.585938 7.347656 -4.089844 7.019531 -4.722656 C 6.691406 -5.328125 6.441406 -6.035156 6.289062 -6.84375 C 6.109375 -7.625 6.035156 -8.433594 6.035156 -9.269531 C 6.035156 -10.074219 6.109375 -10.882812 6.289062 -11.667969 C 6.441406 -12.449219 6.691406 -13.15625 7.019531 -13.789062 C 7.347656 -14.394531 7.753906 -14.898438 8.257812 -15.277344 C 8.761719 -15.65625 9.34375 -15.859375 10 -15.859375 C 10.480469 -15.859375 10.933594 -15.734375 11.339844 -15.53125 C 11.742188 -15.328125 12.097656 -15.101562 12.398438 -14.875 C 12.726562 -14.570312 13.03125 -14.242188 13.308594 -13.890625 L 15.304688 -15.859375 C 14.875 -16.339844 14.371094 -16.769531 13.8125 -17.171875 C 13.308594 -17.5 12.703125 -17.804688 11.945312 -18.082031 C 11.1875 -18.359375 10.328125 -18.511719 9.34375 -18.511719 C 7.90625 -18.511719 6.640625 -18.234375 5.582031 -17.703125 C 4.519531 -17.171875 3.609375 -16.464844 2.902344 -15.605469 C 2.195312 -14.722656 1.640625 -13.738281 1.289062 -12.625 C 0.933594 -11.515625 0.757812 -10.378906 0.757812 -9.21875 C 0.757812 -8.054688 0.933594 -6.917969 1.289062 -5.808594 C 1.640625 -4.695312 2.171875 -3.738281 2.878906 -2.878906 C 3.585938 -2.019531 4.496094 -1.3125 5.582031 -0.78125 C 6.640625 -0.253906 7.90625 0 9.34375 0 C 10.328125 0 11.1875 -0.125 11.945312 -0.402344 C 12.703125 -0.65625 13.308594 -0.960938 13.8125 -1.3125 C 14.371094 -1.691406 14.875 -2.148438 15.304688 -2.652344 L 13.308594 -4.621094 C 13.03125 -4.242188 12.726562 -3.914062 12.398438 -3.636719 C 12.097656 -3.382812 11.742188 -3.15625 11.339844 -2.953125 C 10.933594 -2.753906 10.480469 -2.652344 10 -2.652344 Z M 10 -2.652344" transform="translate(140.997 240.186)" />
      </g>
    </g>
  </g>
  <g fill="#48473E">
    <g>
      <g>
        <path d="M 1.261719 -18.511719 L 1.261719 0 L 6.539062 0 L 6.539062 -18.511719 Z M 1.261719 -18.511719" transform="translate(161.579 240.186)" />
      </g>
    </g>
  </g>
  <g fill="#48473E">
    <g>
      <g>
        <path d="M 1.261719 -18.511719 L 1.261719 0 L 5.226562 0 L 5.226562 -11.113281 L 11.1875 0 L 17.121094 0 L 17.121094 -18.511719 L 13.15625 -18.511719 L 13.15625 -7.398438 L 7.222656 -18.511719 Z M 1.261719 -18.511719" transform="translate(173.902 240.186)" />
      </g>
    </g>
  </g>
  <g fill="#48473E">
    <g>
      <g>
        <path d="M 21.085938 -18.511719 L 14.496094 -18.511719 L 11.1875 -6.945312 L 7.878906 -18.511719 L 1.261719 -18.511719 L 1.261719 0 L 5.226562 0 L 5.226562 -9.242188 L 7.878906 0 L 13.15625 0 L 15.808594 -9.242188 L 15.808594 0 L 21.085938 0 Z M 21.085938 -18.511719" transform="translate(208.904 240.186)" />
      </g>
    </g>
  </g>
  <g fill="#48473E">
    <g>
      <g>
        <path d="M 9.570312 -5.277344 L 11.085938 0 L 16.363281 0 L 11.085938 -18.511719 L 5.78125 -18.511719 L 0.503906 0 L 4.46875 0 L 5.984375 -5.277344 Z M 8.8125 -7.929688 L 6.742188 -7.929688 L 7.777344 -11.566406 Z M 8.8125 -7.929688" transform="translate(235.773 240.186)" />
      </g>
    </g>
  </g>
  <g fill="#48473E">
    <g>
      <g>
        <path d="M 10 -2.652344 C 9.34375 -2.652344 8.761719 -2.828125 8.257812 -3.207031 C 7.753906 -3.585938 7.347656 -4.089844 7.019531 -4.722656 C 6.691406 -5.328125 6.441406 -6.035156 6.289062 -6.84375 C 6.109375 -7.625 6.035156 -8.433594 6.035156 -9.269531 C 6.035156 -10.074219 6.109375 -10.882812 6.289062 -11.667969 C 6.441406 -12.449219 6.691406 -13.15625 7.019531 -13.789062 C 7.347656 -14.394531 7.753906 -14.898438 8.257812 -15.277344 C 8.761719 -15.65625 9.34375 -15.859375 10 -15.859375 C 10.480469 -15.859375 10.933594 -15.734375 11.339844 -15.53125 C 11.742188 -15.328125 12.097656 -15.101562 12.398438 -14.875 C 12.726562 -14.570312 13.03125 -14.242188 13.308594 -13.890625 L 15.304688 -15.859375 C 14.875 -16.339844 14.371094 -16.769531 13.8125 -17.171875 C 13.308594 -17.5 12.703125 -17.804688 11.945312 -18.082031 C 11.1875 -18.359375 10.328125 -18.511719 9.34375 -18.511719 C 7.90625 -18.511719 6.640625 -18.234375 5.582031 -17.703125 C 4.519531 -17.171875 3.609375 -16.464844 2.902344 -15.605469 C 2.195312 -14.722656 1.640625 -13.738281 1.289062 -12.625 C 0.933594 -11.515625 0.757812 -10.378906 0.757812 -9.21875 C 0.757812 -8.054688 0.933594 -6.917969 1.289062 -5.808594 C 1.640625 -4.695312 2.171875 -3.738281 2.878906 -2.878906 C 3.585938 -2.019531 4.496094 -1.3125 5.582031 -0.78125 C 6.640625 -0.253906 7.90625 0 9.34375 0 C 10.328125 0 11.1875 -0.125 11.945312 -0.402344 C 12.703125 -0.65625 13.308594 -0.960938 13.8125 -1.3125 C 14.371094 -1.691406 14.875 -2.148438 15.304688 -2.652344 L 13.308594 -4.621094 C 13.03125 -4.242188 12.726562 -3.914062 12.398438 -3.636719 C 12.097656 -3.382812 11.742188 -3.15625 11.339844 -2.953125 C 10.933594 -2.753906 10.480469 -2.652344 10 -2.652344 Z M 10 -2.652344" transform="translate(257.163 240.186)" />
      </g>
    </g>
  </g>
  <g fill="#48473E">
    <g>
      <g>
        <path d="M 17.121094 -18.511719 L 11.84375 -18.511719 L 11.84375 -11.238281 L 6.539062 -11.238281 L 6.539062 -18.511719 L 1.261719 -18.511719 L 1.261719 0 L 6.539062 0 L 6.539062 -8.585938 L 11.84375 -8.585938 L 11.84375 0 L 17.121094 0 Z M 17.121094 -18.511719" transform="translate(277.744 240.186)" />
      </g>
    </g>
  </g>
  <g fill="#48473E">
    <g>
      <g>
        <path d="M 1.261719 -18.511719 L 1.261719 0 L 6.539062 0 L 6.539062 -18.511719 Z M 1.261719 -18.511719" transform="translate(300.65 240.186)" />
      </g>
    </g>
  </g>
  <g fill="#48473E">
    <g>
      <g>
        <path d="M 1.261719 -18.511719 L 1.261719 0 L 5.226562 0 L 5.226562 -11.113281 L 11.1875 0 L 17.121094 0 L 17.121094 -18.511719 L 13.15625 -18.511719 L 13.15625 -7.398438 L 7.222656 -18.511719 Z M 1.261719 -18.511719" transform="translate(312.973 240.186)" />
      </g>
    </g>
  </g>
  <g fill="#48473E">
    <g>
      <g>
        <path d="M 13.15625 -3.964844 L 6.539062 -3.964844 L 6.539062 -7.273438 L 11.84375 -7.273438 L 11.84375 -11.238281 L 6.539062 -11.238281 L 6.539062 -14.546875 L 12.5 -14.546875 L 11.84375 -18.511719 L 1.261719 -18.511719 L 1.261719 0 L 12.5 0 Z M 13.15625 -3.964844" transform="translate(335.878 240.186)" />
      </g>
    </g>
  </g>
  <g fill="#48473E">
    <g>
      <g>
        <path d="M 6.582031 -9.179688 L 9.5 -9.179688 L 9.085938 -11.683594 L 0.734375 -11.683594 L 0.320312 -9.179688 L 3.234375 -9.179688 L 3.234375 0 L 6.582031 0 Z M 6.582031 -9.179688" transform="translate(69.407 269.233)" />
      </g>
    </g>
  </g>
  <g fill="#48473E">
    <g>
      <g>
        <path d="M 10.804688 -11.683594 L 7.476562 -11.683594 L 7.476562 -7.09375 L 4.128906 -7.09375 L 4.128906 -11.683594 L 0.796875 -11.683594 L 0.796875 0 L 4.128906 0 L 4.128906 -5.417969 L 7.476562 -5.417969 L 7.476562 0 L 10.804688 0 Z M 10.804688 -11.683594" transform="translate(79.224 269.233)" />
      </g>
    </g>
  </g>
  <g fill="#48473E">
    <g>
      <g>
        <path d="M 5.816406 -12.066406 C 4.925781 -12.066406 4.144531 -11.875 3.472656 -11.523438 C 2.804688 -11.171875 2.261719 -10.695312 1.816406 -10.121094 C 1.371094 -9.53125 1.035156 -8.859375 0.8125 -8.128906 C 0.589844 -7.378906 0.476562 -6.613281 0.476562 -5.847656 C 0.476562 -5.050781 0.589844 -4.289062 0.8125 -3.554688 C 1.035156 -2.804688 1.371094 -2.136719 1.816406 -1.5625 C 2.261719 -0.972656 2.804688 -0.492188 3.472656 -0.144531 C 4.144531 0.207031 4.925781 0.382812 5.816406 0.382812 C 6.710938 0.382812 7.476562 0.207031 8.144531 -0.144531 C 8.8125 -0.492188 9.371094 -0.972656 9.816406 -1.5625 C 10.265625 -2.136719 10.597656 -2.804688 10.820312 -3.554688 C 11.042969 -4.289062 11.15625 -5.050781 11.15625 -5.847656 C 11.15625 -6.613281 11.042969 -7.378906 10.820312 -8.128906 C 10.597656 -8.859375 10.265625 -9.53125 9.816406 -10.121094 C 9.371094 -10.695312 8.8125 -11.171875 8.144531 -11.523438 C 7.476562 -11.875 6.710938 -12.066406 5.816406 -12.066406 Z M 5.816406 -1.402344 C 5.59375 -1.402344 5.371094 -1.480469 5.164062 -1.65625 C 4.941406 -1.816406 4.75 -2.085938 4.589844 -2.453125 C 4.414062 -2.804688 4.269531 -3.265625 4.175781 -3.824219 C 4.078125 -4.382812 4.03125 -5.050781 4.03125 -5.847656 C 4.03125 -6.613281 4.078125 -7.285156 4.175781 -7.855469 C 4.269531 -8.414062 4.414062 -8.878906 4.589844 -9.242188 C 4.75 -9.59375 4.941406 -9.867188 5.164062 -10.039062 C 5.371094 -10.199219 5.59375 -10.296875 5.816406 -10.296875 C 6.039062 -10.296875 6.246094 -10.199219 6.46875 -10.039062 C 6.679688 -9.867188 6.867188 -9.59375 7.042969 -9.242188 C 7.203125 -8.878906 7.347656 -8.414062 7.441406 -7.855469 C 7.539062 -7.285156 7.601562 -6.613281 7.601562 -5.847656 C 7.601562 -5.050781 7.539062 -4.382812 7.441406 -3.824219 C 7.347656 -3.265625 7.203125 -2.804688 7.042969 -2.453125 C 6.867188 -2.085938 6.679688 -1.816406 6.46875 -1.65625 C 6.246094 -1.480469 6.039062 -1.402344 5.816406 -1.402344 Z M 5.816406 -1.402344" transform="translate(90.827 269.233)" />
      </g>
    </g>
  </g>
  <g fill="#48473E">
    <g>
      <g>
        <path d="M 10.488281 -11.683594 L 7.15625 -11.683594 L 7.15625 -5.832031 C 7.15625 -4.367188 7.027344 -3.316406 6.789062 -2.660156 C 6.535156 -1.992188 6.105469 -1.671875 5.484375 -1.671875 C 5.164062 -1.671875 4.910156 -1.753906 4.703125 -1.914062 C 4.476562 -2.070312 4.304688 -2.3125 4.175781 -2.660156 C 4.046875 -2.996094 3.953125 -3.425781 3.890625 -3.953125 C 3.824219 -4.460938 3.808594 -5.101562 3.808594 -5.832031 L 3.808594 -11.683594 L 0.476562 -11.683594 L 0.476562 -5.832031 C 0.476562 -5.101562 0.558594 -4.382812 0.734375 -3.679688 C 0.890625 -2.980469 1.179688 -2.359375 1.578125 -1.816406 C 1.960938 -1.273438 2.484375 -0.828125 3.125 -0.492188 C 3.761719 -0.160156 4.542969 0 5.484375 0 C 6.40625 0 7.203125 -0.160156 7.839844 -0.492188 C 8.480469 -0.828125 9.003906 -1.273438 9.386719 -1.816406 C 9.769531 -2.359375 10.054688 -2.980469 10.230469 -3.679688 C 10.390625 -4.382812 10.488281 -5.101562 10.488281 -5.832031 Z M 10.488281 -11.683594" transform="translate(102.461 269.233)" />
      </g>
    </g>
  </g>
  <g fill="#48473E">
    <g>
      <g>
        <path d="M 6.3125 -2.503906 C 6.3125 -2.277344 6.199219 -2.085938 5.992188 -1.929688 C 5.785156 -1.753906 5.484375 -1.671875 5.066406 -1.671875 C 4.71875 -1.671875 4.367188 -1.738281 4.046875 -1.898438 C 3.730469 -2.039062 3.425781 -2.214844 3.15625 -2.4375 C 2.867188 -2.660156 2.628906 -2.902344 2.40625 -3.15625 C 2.183594 -3.410156 1.992188 -3.664062 1.847656 -3.890625 L 0.476562 -2.503906 C 0.859375 -2.023438 1.242188 -1.640625 1.625 -1.324219 C 2.007812 -1.003906 2.40625 -0.75 2.820312 -0.558594 C 3.21875 -0.351562 3.632812 -0.207031 4.078125 -0.128906 C 4.527344 -0.03125 4.988281 0 5.484375 0 C 6.214844 0 6.835938 -0.113281 7.363281 -0.335938 C 7.890625 -0.558594 8.320312 -0.84375 8.671875 -1.195312 C 9.003906 -1.53125 9.257812 -1.898438 9.417969 -2.277344 C 9.578125 -2.660156 9.65625 -3.011719 9.65625 -3.332031 C 9.65625 -3.953125 9.515625 -4.496094 9.226562 -4.957031 C 8.941406 -5.417969 8.574219 -5.816406 8.144531 -6.167969 C 7.699219 -6.519531 7.234375 -6.820312 6.726562 -7.09375 C 6.214844 -7.347656 5.753906 -7.601562 5.324219 -7.824219 C 4.875 -8.046875 4.527344 -8.253906 4.238281 -8.480469 C 3.953125 -8.6875 3.808594 -8.925781 3.808594 -9.179688 C 3.808594 -9.386719 3.90625 -9.578125 4.128906 -9.753906 C 4.335938 -9.914062 4.652344 -10.007812 5.066406 -10.007812 C 5.417969 -10.007812 5.753906 -9.929688 6.070312 -9.785156 C 6.390625 -9.625 6.695312 -9.449219 6.980469 -9.226562 C 7.25 -9.003906 7.507812 -8.765625 7.730469 -8.511719 C 7.953125 -8.253906 8.128906 -8.015625 8.289062 -7.792969 L 9.65625 -9.179688 C 8.894531 -10.089844 8.113281 -10.726562 7.316406 -11.109375 C 6.519531 -11.492188 5.625 -11.683594 4.652344 -11.683594 C 3.921875 -11.683594 3.28125 -11.554688 2.757812 -11.332031 C 2.230469 -11.109375 1.800781 -10.820312 1.464844 -10.488281 C 1.117188 -10.136719 0.875 -9.769531 0.71875 -9.386719 C 0.558594 -9.003906 0.476562 -8.652344 0.476562 -8.351562 C 0.476562 -7.714844 0.621094 -7.171875 0.910156 -6.710938 C 1.195312 -6.246094 1.546875 -5.847656 1.992188 -5.5 C 2.421875 -5.148438 2.882812 -4.84375 3.394531 -4.589844 C 3.90625 -4.320312 4.367188 -4.078125 4.796875 -3.855469 C 5.226562 -3.632812 5.59375 -3.410156 5.882812 -3.203125 C 6.167969 -2.980469 6.3125 -2.757812 6.3125 -2.503906 Z M 6.3125 -2.503906" transform="translate(113.426 269.233)" />
      </g>
    </g>
  </g>
  <g fill="#48473E">
    <g>
      <g>
        <path d="M 6.039062 -3.332031 L 6.996094 0 L 10.328125 0 L 6.996094 -11.683594 L 3.648438 -11.683594 L 0.320312 0 L 2.820312 0 L 3.777344 -3.332031 Z M 5.5625 -5.003906 L 4.253906 -5.003906 L 4.910156 -7.300781 Z M 5.5625 -5.003906" transform="translate(123.562 269.233)" />
      </g>
    </g>
  </g>
  <g fill="#48473E">
    <g>
      <g>
        <path d="M 0.796875 -11.683594 L 0.796875 0 L 3.300781 0 L 3.300781 -7.011719 L 7.058594 0 L 10.804688 0 L 10.804688 -11.683594 L 8.304688 -11.683594 L 8.304688 -4.667969 L 4.558594 -11.683594 Z M 0.796875 -11.683594" transform="translate(134.209 269.233)" />
      </g>
    </g>
  </g>
  <g fill="#48473E">
    <g>
      <g>
        <path d="M 5.386719 -11.683594 L 0.796875 -11.683594 L 0.796875 0 L 5.386719 0 C 6.214844 0 6.964844 -0.160156 7.632812 -0.492188 C 8.304688 -0.828125 8.859375 -1.273438 9.339844 -1.816406 C 9.816406 -2.359375 10.167969 -2.980469 10.421875 -3.679688 C 10.679688 -4.382812 10.804688 -5.101562 10.804688 -5.832031 C 10.804688 -6.453125 10.695312 -7.109375 10.488281 -7.808594 C 10.265625 -8.496094 9.945312 -9.132812 9.5 -9.707031 C 9.050781 -10.28125 8.496094 -10.742188 7.808594 -11.125 C 7.125 -11.492188 6.3125 -11.683594 5.386719 -11.683594 Z M 4.972656 -1.671875 L 4.128906 -1.671875 L 4.128906 -10.007812 L 4.972656 -10.007812 C 5.386719 -10.007812 5.738281 -9.882812 6.054688 -9.640625 C 6.375 -9.402344 6.628906 -9.085938 6.835938 -8.703125 C 7.042969 -8.304688 7.203125 -7.855469 7.316406 -7.363281 C 7.410156 -6.851562 7.476562 -6.34375 7.476562 -5.832031 C 7.476562 -5.308594 7.410156 -4.796875 7.316406 -4.304688 C 7.203125 -3.792969 7.042969 -3.347656 6.835938 -2.964844 C 6.628906 -2.582031 6.375 -2.261719 6.054688 -2.023438 C 5.738281 -1.785156 5.386719 -1.671875 4.972656 -1.671875 Z M 4.972656 -1.671875" transform="translate(145.811 269.233)" />
      </g>
    </g>
  </g>
  <g fill="#48473E">
    <g>
      <g>
        <path d="M 6.3125 -2.503906 C 6.3125 -2.277344 6.199219 -2.085938 5.992188 -1.929688 C 5.785156 -1.753906 5.484375 -1.671875 5.066406 -1.671875 C 4.71875 -1.671875 4.367188 -1.738281 4.046875 -1.898438 C 3.730469 -2.039062 3.425781 -2.214844 3.15625 -2.4375 C 2.867188 -2.660156 2.628906 -2.902344 2.40625 -3.15625 C 2.183594 -3.410156 1.992188 -3.664062 1.847656 -3.890625 L 0.476562 -2.503906 C 0.859375 -2.023438 1.242188 -1.640625 1.625 -1.324219 C 2.007812 -1.003906 2.40625 -0.75 2.820312 -0.558594 C 3.21875 -0.351562 3.632812 -0.207031 4.078125 -0.128906 C 4.527344 -0.03125 4.988281 0 5.484375 0 C 6.214844 0 6.835938 -0.113281 7.363281 -0.335938 C 7.890625 -0.558594 8.320312 -0.84375 8.671875 -1.195312 C 9.003906 -1.53125 9.257812 -1.898438 9.417969 -2.277344 C 9.578125 -2.660156 9.65625 -3.011719 9.65625 -3.332031 C 9.65625 -3.953125 9.515625 -4.496094 9.226562 -4.957031 C 8.941406 -5.417969 8.574219 -5.816406 8.144531 -6.167969 C 7.699219 -6.519531 7.234375 -6.820312 6.726562 -7.09375 C 6.214844 -7.347656 5.753906 -7.601562 5.324219 -7.824219 C 4.875 -8.046875 4.527344 -8.253906 4.238281 -8.480469 C 3.953125 -8.6875 3.808594 -8.925781 3.808594 -9.179688 C 3.808594 -9.386719 3.90625 -9.578125 4.128906 -9.753906 C 4.335938 -9.914062 4.652344 -10.007812 5.066406 -10.007812 C 5.417969 -10.007812 5.753906 -9.929688 6.070312 -9.785156 C 6.390625 -9.625 6.695312 -9.449219 6.980469 -9.226562 C 7.25 -9.003906 7.507812 -8.765625 7.730469 -8.511719 C 7.953125 -8.253906 8.128906 -8.015625 8.289062 -7.792969 L 9.65625 -9.179688 C 8.894531 -10.089844 8.113281 -10.726562 7.316406 -11.109375 C 6.519531 -11.492188 5.625 -11.683594 4.652344 -11.683594 C 3.921875 -11.683594 3.28125 -11.554688 2.757812 -11.332031 C 2.230469 -11.109375 1.800781 -10.820312 1.464844 -10.488281 C 1.117188 -10.136719 0.875 -9.769531 0.71875 -9.386719 C 0.558594 -9.003906 0.476562 -8.652344 0.476562 -8.351562 C 0.476562 -7.714844 0.621094 -7.171875 0.910156 -6.710938 C 1.195312 -6.246094 1.546875 -5.847656 1.992188 -5.5 C 2.421875 -5.148438 2.882812 -4.84375 3.394531 -4.589844 C 3.90625 -4.320312 4.367188 -4.078125 4.796875 -3.855469 C 5.226562 -3.632812 5.59375 -3.410156 5.882812 -3.203125 C 6.167969 -2.980469 6.3125 -2.757812 6.3125 -2.503906 Z M 6.3125 -2.503906" transform="translate(157.095 269.233)" />
      </g>
    </g>
  </g>
  <g fill="#48473E">
    <g>
      <g>
        <path d="M 5.816406 -12.066406 C 4.925781 -12.066406 4.144531 -11.875 3.472656 -11.523438 C 2.804688 -11.171875 2.261719 -10.695312 1.816406 -10.121094 C 1.371094 -9.53125 1.035156 -8.859375 0.8125 -8.128906 C 0.589844 -7.378906 0.476562 -6.613281 0.476562 -5.847656 C 0.476562 -5.050781 0.589844 -4.289062 0.8125 -3.554688 C 1.035156 -2.804688 1.371094 -2.136719 1.816406 -1.5625 C 2.261719 -0.972656 2.804688 -0.492188 3.472656 -0.144531 C 4.144531 0.207031 4.925781 0.382812 5.816406 0.382812 C 6.710938 0.382812 7.476562 0.207031 8.144531 -0.144531 C 8.8125 -0.492188 9.371094 -0.972656 9.816406 -1.5625 C 10.265625 -2.136719 10.597656 -2.804688 10.820312 -3.554688 C 11.042969 -4.289062 11.15625 -5.050781 11.15625 -5.847656 C 11.15625 -6.613281 11.042969 -7.378906 10.820312 -8.128906 C 10.597656 -8.859375 10.265625 -9.53125 9.816406 -10.121094 C 9.371094 -10.695312 8.8125 -11.171875 8.144531 -11.523438 C 7.476562 -11.875 6.710938 -12.066406 5.816406 -12.066406 Z M 5.816406 -1.402344 C 5.59375 -1.402344 5.371094 -1.480469 5.164062 -1.65625 C 4.941406 -1.816406 4.75 -2.085938 4.589844 -2.453125 C 4.414062 -2.804688 4.269531 -3.265625 4.175781 -3.824219 C 4.078125 -4.382812 4.03125 -5.050781 4.03125 -5.847656 C 4.03125 -6.613281 4.078125 -7.285156 4.175781 -7.855469 C 4.269531 -8.414062 4.414062 -8.878906 4.589844 -9.242188 C 4.75 -9.59375 4.941406 -9.867188 5.164062 -10.039062 C 5.371094 -10.199219 5.59375 -10.296875 5.816406 -10.296875 C 6.039062 -10.296875 6.246094 -10.199219 6.46875 -10.039062 C 6.679688 -9.867188 6.867188 -9.59375 7.042969 -9.242188 C 7.203125 -8.878906 7.347656 -8.414062 7.441406 -7.855469 C 7.539062 -7.285156 7.601562 -6.613281 7.601562 -5.847656 C 7.601562 -5.050781 7.539062 -4.382812 7.441406 -3.824219 C 7.347656 -3.265625 7.203125 -2.804688 7.042969 -2.453125 C 6.867188 -2.085938 6.679688 -1.816406 6.46875 -1.65625 C 6.246094 -1.480469 6.039062 -1.402344 5.816406 -1.402344 Z M 5.816406 -1.402344" transform="translate(172.012 269.233)" />
      </g>
    </g>
  </g>
  <g fill="#48473E">
    <g>
      <g>
        <path d="M 4.128906 -7.09375 L 4.128906 -9.179688 L 7.890625 -9.179688 L 7.476562 -11.683594 L 0.796875 -11.683594 L 0.796875 0 L 4.128906 0 L 4.128906 -5.417969 L 7.476562 -5.417969 L 7.476562 -7.09375 Z M 4.128906 -7.09375" transform="translate(183.647 269.233)" />
      </g>
    </g>
    <g>
      <g>
        <path d="M 5.386719 -11.683594 L 0.796875 -11.683594 L 0.796875 0 L 5.386719 0 C 6.214844 0 6.964844 -0.160156 7.632812 -0.492188 C 8.304688 -0.828125 8.859375 -1.273438 9.339844 -1.816406 C 9.816406 -2.359375 10.167969 -2.980469 10.421875 -3.679688 C 10.679688 -4.382812 10.804688 -5.101562 10.804688 -5.832031 C 10.804688 -6.453125 10.695312 -7.109375 10.488281 -7.808594 C 10.265625 -8.496094 9.945312 -9.132812 9.5 -9.707031 C 9.050781 -10.28125 8.496094 -10.742188 7.808594 -11.125 C 7.125 -11.492188 6.3125 -11.683594 5.386719 -11.683594 Z M 4.972656 -1.671875 L 4.128906 -1.671875 L 4.128906 -10.007812 L 4.972656 -10.007812 C 5.386719 -10.007812 5.738281 -9.882812 6.054688 -9.640625 C 6.375 -9.402344 6.628906 -9.085938 6.835938 -8.703125 C 7.042969 -8.304688 7.203125 -7.855469 7.316406 -7.363281 C 7.410156 -6.851562 7.476562 -6.34375 7.476562 -5.832031 C 7.476562 -5.308594 7.410156 -4.796875 7.316406 -4.304688 C 7.203125 -3.792969 7.042969 -3.347656 6.835938 -2.964844 C 6.628906 -2.582031 6.375 -2.261719 6.054688 -2.023438 C 5.738281 -1.785156 5.386719 -1.671875 4.972656 -1.671875 Z M 4.972656 -1.671875" transform="translate(196.795 269.233)" />
      </g>
    </g>
  </g>
  <g fill="#48473E">
    <g>
      <g>
        <path d="M 5.816406 -12.066406 C 4.925781 -12.066406 4.144531 -11.875 3.472656 -11.523438 C 2.804688 -11.171875 2.261719 -10.695312 1.816406 -10.121094 C 1.371094 -9.53125 1.035156 -8.859375 0.8125 -8.128906 C 0.589844 -7.378906 0.476562 -6.613281 0.476562 -5.847656 C 0.476562 -5.050781 0.589844 -4.289062 0.8125 -3.554688 C 1.035156 -2.804688 1.371094 -2.136719 1.816406 -1.5625 C 2.261719 -0.972656 2.804688 -0.492188 3.472656 -0.144531 C 4.144531 0.207031 4.925781 0.382812 5.816406 0.382812 C 6.710938 0.382812 7.476562 0.207031 8.144531 -0.144531 C 8.8125 -0.492188 9.371094 -0.972656 9.816406 -1.5625 C 10.265625 -2.136719 10.597656 -2.804688 10.820312 -3.554688 C 11.042969 -4.289062 11.15625 -5.050781 11.15625 -5.847656 C 11.15625 -6.613281 11.042969 -7.378906 10.820312 -8.128906 C 10.597656 -8.859375 10.265625 -9.53125 9.816406 -10.121094 C 9.371094 -10.695312 8.8125 -11.171875 8.144531 -11.523438 C 7.476562 -11.875 6.710938 -12.066406 5.816406 -12.066406 Z M 5.816406 -1.402344 C 5.59375 -1.402344 5.371094 -1.480469 5.164062 -1.65625 C 4.941406 -1.816406 4.75 -2.085938 4.589844 -2.453125 C 4.414062 -2.804688 4.269531 -3.265625 4.175781 -3.824219 C 4.078125 -4.382812 4.03125 -5.050781 4.03125 -5.847656 C 4.03125 -6.613281 4.078125 -7.285156 4.175781 -7.855469 C 4.269531 -8.414062 4.414062 -8.878906 4.589844 -9.242188 C 4.75 -9.59375 4.941406 -9.867188 5.164062 -10.039062 C 5.371094 -10.199219 5.59375 -10.296875 5.816406 -10.296875 C 6.039062 -10.296875 6.246094 -10.199219 6.46875 -10.039062 C 6.679688 -9.867188 6.867188 -9.59375 7.042969 -9.242188 C 7.203125 -8.878906 7.347656 -8.414062 7.441406 -7.855469 C 7.539062 -7.285156 7.601562 -6.613281 7.601562 -5.847656 C 7.601562 -5.050781 7.539062 -4.382812 7.441406 -3.824219 C 7.347656 -3.265625 7.203125 -2.804688 7.042969 -2.453125 C 6.867188 -2.085938 6.679688 -1.816406 6.46875 -1.65625 C 6.246094 -1.480469 6.039062 -1.402344 5.816406 -1.402344 Z M 5.816406 -1.402344" transform="translate(208.079 269.233)" />
      </g>
    </g>
  </g>
  <g fill="#48473E">
    <g>
      <g>
        <path d="M 10.917969 -6.679688 L 5.898438 -6.679688 L 5.484375 -5.003906 L 7.570312 -5.003906 L 7.570312 -2.085938 C 7.476562 -1.992188 7.363281 -1.929688 7.25 -1.878906 C 7.140625 -1.816406 7.011719 -1.769531 6.867188 -1.738281 C 6.710938 -1.6875 6.535156 -1.671875 6.328125 -1.671875 C 5.976562 -1.671875 5.65625 -1.785156 5.386719 -2.007812 C 5.117188 -2.230469 4.894531 -2.519531 4.71875 -2.902344 C 4.527344 -3.265625 4.398438 -3.699219 4.304688 -4.175781 C 4.207031 -4.652344 4.175781 -5.132812 4.175781 -5.640625 C 4.175781 -6.183594 4.222656 -6.710938 4.335938 -7.234375 C 4.429688 -7.746094 4.589844 -8.207031 4.8125 -8.621094 C 5.019531 -9.035156 5.292969 -9.371094 5.609375 -9.625 C 5.929688 -9.882812 6.296875 -10.007812 6.742188 -10.007812 C 7.15625 -10.007812 7.492188 -9.914062 7.761719 -9.753906 C 8.015625 -9.578125 8.238281 -9.386719 8.398438 -9.179688 C 8.589844 -8.925781 8.734375 -8.652344 8.828125 -8.351562 L 10.074219 -9.59375 C 9.800781 -9.976562 9.484375 -10.3125 9.132812 -10.628906 C 8.8125 -10.886719 8.429688 -11.125 7.96875 -11.347656 C 7.492188 -11.570312 6.949219 -11.683594 6.328125 -11.683594 C 5.339844 -11.683594 4.496094 -11.507812 3.761719 -11.15625 C 3.027344 -10.804688 2.40625 -10.359375 1.929688 -9.800781 C 1.449219 -9.226562 1.082031 -8.589844 0.84375 -7.890625 C 0.589844 -7.171875 0.476562 -6.4375 0.476562 -5.707031 C 0.476562 -4.972656 0.589844 -4.269531 0.8125 -3.585938 C 1.035156 -2.902344 1.386719 -2.296875 1.832031 -1.769531 C 2.277344 -1.226562 2.851562 -0.796875 3.523438 -0.476562 C 4.191406 -0.160156 4.988281 0 5.898438 0 C 6.359375 0 6.789062 -0.03125 7.1875 -0.09375 C 7.570312 -0.160156 7.9375 -0.253906 8.253906 -0.382812 C 8.574219 -0.492188 8.878906 -0.621094 9.132812 -0.78125 C 9.386719 -0.925781 9.625 -1.082031 9.816406 -1.242188 C 10.265625 -1.59375 10.628906 -2.023438 10.917969 -2.503906 Z M 10.917969 -6.679688" transform="translate(219.713 269.233)" />
      </g>
    </g>
  </g>
  <g fill="#48473E">
    <g>
      <g>
        <path d="M 4.972656 -11.683594 L 0.796875 -11.683594 L 0.796875 0 L 4.128906 0 L 4.128906 -5.003906 L 4.972656 -5.003906 C 5.59375 -5.003906 6.183594 -5.050781 6.742188 -5.164062 C 7.300781 -5.273438 7.792969 -5.464844 8.207031 -5.722656 C 8.621094 -5.976562 8.941406 -6.328125 9.195312 -6.757812 C 9.433594 -7.1875 9.5625 -7.714844 9.5625 -8.351562 C 9.5625 -8.972656 9.433594 -9.5 9.195312 -9.929688 C 8.941406 -10.34375 8.621094 -10.695312 8.207031 -10.949219 C 7.792969 -11.203125 7.300781 -11.394531 6.742188 -11.507812 C 6.183594 -11.617188 5.59375 -11.683594 4.972656 -11.683594 Z M 4.128906 -6.679688 L 4.128906 -10.007812 C 4.476562 -10.007812 4.78125 -9.960938 5.050781 -9.867188 C 5.324219 -9.769531 5.546875 -9.640625 5.722656 -9.484375 C 5.898438 -9.324219 6.023438 -9.148438 6.121094 -8.957031 C 6.214844 -8.75 6.261719 -8.542969 6.261719 -8.335938 C 6.261719 -8.113281 6.214844 -7.90625 6.121094 -7.714844 C 6.023438 -7.523438 5.898438 -7.347656 5.722656 -7.1875 C 5.546875 -7.027344 5.324219 -6.917969 5.050781 -6.820312 C 4.78125 -6.726562 4.476562 -6.679688 4.128906 -6.679688 Z M 4.128906 -6.679688" transform="translate(235.89 269.233)" />
      </g>
    </g>
  </g>
  <g fill="#48473E">
    <g>
      <g>
        <path d="M 0.796875 -11.683594 L 0.796875 0 L 4.128906 0 L 4.128906 -11.683594 Z M 0.796875 -11.683594" transform="translate(245.93 269.233)" />
      </g>
    </g>
  </g>
  <g fill="#48473E">
    <g>
      <g>
        <path d="M 6.3125 -1.671875 C 5.898438 -1.671875 5.53125 -1.785156 5.210938 -2.023438 C 4.894531 -2.261719 4.636719 -2.582031 4.429688 -2.980469 C 4.222656 -3.363281 4.0625 -3.808594 3.96875 -4.320312 C 3.855469 -4.8125 3.808594 -5.324219 3.808594 -5.847656 C 3.808594 -6.359375 3.855469 -6.867188 3.96875 -7.363281 C 4.0625 -7.855469 4.222656 -8.304688 4.429688 -8.703125 C 4.636719 -9.085938 4.894531 -9.402344 5.210938 -9.640625 C 5.53125 -9.882812 5.898438 -10.007812 6.3125 -10.007812 C 6.613281 -10.007812 6.902344 -9.929688 7.15625 -9.800781 C 7.410156 -9.675781 7.632812 -9.53125 7.824219 -9.386719 C 8.03125 -9.195312 8.222656 -8.988281 8.398438 -8.765625 L 9.65625 -10.007812 C 9.386719 -10.3125 9.070312 -10.582031 8.71875 -10.835938 C 8.398438 -11.042969 8.015625 -11.234375 7.539062 -11.410156 C 7.058594 -11.585938 6.519531 -11.683594 5.898438 -11.683594 C 4.988281 -11.683594 4.191406 -11.507812 3.523438 -11.171875 C 2.851562 -10.835938 2.277344 -10.390625 1.832031 -9.847656 C 1.386719 -9.292969 1.035156 -8.671875 0.8125 -7.96875 C 0.589844 -7.265625 0.476562 -6.550781 0.476562 -5.816406 C 0.476562 -5.085938 0.589844 -4.367188 0.8125 -3.664062 C 1.035156 -2.964844 1.371094 -2.359375 1.816406 -1.816406 C 2.261719 -1.273438 2.835938 -0.828125 3.523438 -0.492188 C 4.191406 -0.160156 4.988281 0 5.898438 0 C 6.519531 0 7.058594 -0.078125 7.539062 -0.253906 C 8.015625 -0.414062 8.398438 -0.605469 8.71875 -0.828125 C 9.070312 -1.066406 9.386719 -1.355469 9.65625 -1.671875 L 8.398438 -2.917969 C 8.222656 -2.675781 8.03125 -2.46875 7.824219 -2.296875 C 7.632812 -2.136719 7.410156 -1.992188 7.15625 -1.863281 C 6.902344 -1.738281 6.613281 -1.671875 6.3125 -1.671875 Z M 6.3125 -1.671875" transform="translate(250.855 269.233)" />
      </g>
    </g>
  </g>
  <g fill="#48473E">
    <g>
      <g>
        <path d="M 6.582031 -9.179688 L 9.5 -9.179688 L 9.085938 -11.683594 L 0.734375 -11.683594 L 0.320312 -9.179688 L 3.234375 -9.179688 L 3.234375 0 L 6.582031 0 Z M 6.582031 -9.179688" transform="translate(260.992 269.233)" />
      </g>
    </g>
  </g>
  <g fill="#48473E">
    <g>
      <g>
        <path d="M 10.488281 -11.683594 L 7.15625 -11.683594 L 7.15625 -5.832031 C 7.15625 -4.367188 7.027344 -3.316406 6.789062 -2.660156 C 6.535156 -1.992188 6.105469 -1.671875 5.484375 -1.671875 C 5.164062 -1.671875 4.910156 -1.753906 4.703125 -1.914062 C 4.476562 -2.070312 4.304688 -2.3125 4.175781 -2.660156 C 4.046875 -2.996094 3.953125 -3.425781 3.890625 -3.953125 C 3.824219 -4.460938 3.808594 -5.101562 3.808594 -5.832031 L 3.808594 -11.683594 L 0.476562 -11.683594 L 0.476562 -5.832031 C 0.476562 -5.101562 0.558594 -4.382812 0.734375 -3.679688 C 0.890625 -2.980469 1.179688 -2.359375 1.578125 -1.816406 C 1.960938 -1.273438 2.484375 -0.828125 3.125 -0.492188 C 3.761719 -0.160156 4.542969 0 5.484375 0 C 6.40625 0 7.203125 -0.160156 7.839844 -0.492188 C 8.480469 -0.828125 9.003906 -1.273438 9.386719 -1.816406 C 9.769531 -2.359375 10.054688 -2.980469 10.230469 -3.679688 C 10.390625 -4.382812 10.488281 -5.101562 10.488281 -5.832031 Z M 10.488281 -11.683594" transform="translate(270.809 269.233)" />
      </g>
    </g>
  </g>
  <g fill="#48473E">
    <g>
      <g>
        <path d="M 9.976562 0 L 7.96875 -5.609375 C 8.445312 -5.863281 8.84375 -6.199219 9.132812 -6.644531 C 9.417969 -7.09375 9.5625 -7.648438 9.5625 -8.351562 C 9.5625 -8.972656 9.433594 -9.5 9.195312 -9.929688 C 8.941406 -10.34375 8.621094 -10.695312 8.207031 -10.949219 C 7.792969 -11.203125 7.300781 -11.394531 6.742188 -11.507812 C 6.183594 -11.617188 5.59375 -11.683594 4.972656 -11.683594 L 0.796875 -11.683594 L 0.796875 0 L 4.128906 0 L 4.128906 -5.003906 L 4.972656 -5.003906 L 6.628906 0 Z M 4.128906 -6.679688 L 4.128906 -10.007812 C 4.476562 -10.007812 4.78125 -9.960938 5.050781 -9.867188 C 5.324219 -9.769531 5.546875 -9.640625 5.722656 -9.484375 C 5.898438 -9.324219 6.023438 -9.148438 6.121094 -8.957031 C 6.214844 -8.75 6.261719 -8.542969 6.261719 -8.335938 C 6.261719 -8.113281 6.214844 -7.90625 6.121094 -7.714844 C 6.023438 -7.523438 5.898438 -7.347656 5.722656 -7.1875 C 5.546875 -7.027344 5.324219 -6.917969 5.050781 -6.820312 C 4.78125 -6.726562 4.476562 -6.679688 4.128906 -6.679688 Z M 4.128906 -6.679688" transform="translate(281.774 269.233)" />
      </g>
    </g>
  </g>
  <g fill="#48473E">
    <g>
      <g>
        <path d="M 8.304688 -2.503906 L 4.128906 -2.503906 L 4.128906 -4.589844 L 7.476562 -4.589844 L 7.476562 -7.09375 L 4.128906 -7.09375 L 4.128906 -9.179688 L 7.890625 -9.179688 L 7.476562 -11.683594 L 0.796875 -11.683594 L 0.796875 0 L 7.890625 0 Z M 8.304688 -2.503906" transform="translate(292.229 269.233)" />
      </g>
    </g>
  </g>
  <g fill="#48473E">
    <g>
      <g>
        <path d="M 6.3125 -2.503906 C 6.3125 -2.277344 6.199219 -2.085938 5.992188 -1.929688 C 5.785156 -1.753906 5.484375 -1.671875 5.066406 -1.671875 C 4.71875 -1.671875 4.367188 -1.738281 4.046875 -1.898438 C 3.730469 -2.039062 3.425781 -2.214844 3.15625 -2.4375 C 2.867188 -2.660156 2.628906 -2.902344 2.40625 -3.15625 C 2.183594 -3.410156 1.992188 -3.664062 1.847656 -3.890625 L 0.476562 -2.503906 C 0.859375 -2.023438 1.242188 -1.640625 1.625 -1.324219 C 2.007812 -1.003906 2.40625 -0.75 2.820312 -0.558594 C 3.21875 -0.351562 3.632812 -0.207031 4.078125 -0.128906 C 4.527344 -0.03125 4.988281 0 5.484375 0 C 6.214844 0 6.835938 -0.113281 7.363281 -0.335938 C 7.890625 -0.558594 8.320312 -0.84375 8.671875 -1.195312 C 9.003906 -1.53125 9.257812 -1.898438 9.417969 -2.277344 C 9.578125 -2.660156 9.65625 -3.011719 9.65625 -3.332031 C 9.65625 -3.953125 9.515625 -4.496094 9.226562 -4.957031 C 8.941406 -5.417969 8.574219 -5.816406 8.144531 -6.167969 C 7.699219 -6.519531 7.234375 -6.820312 6.726562 -7.09375 C 6.214844 -7.347656 5.753906 -7.601562 5.324219 -7.824219 C 4.875 -8.046875 4.527344 -8.253906 4.238281 -8.480469 C 3.953125 -8.6875 3.808594 -8.925781 3.808594 -9.179688 C 3.808594 -9.386719 3.90625 -9.578125 4.128906 -9.753906 C 4.335938 -9.914062 4.652344 -10.007812 5.066406 -10.007812 C 5.417969 -10.007812 5.753906 -9.929688 6.070312 -9.785156 C 6.390625 -9.625 6.695312 -9.449219 6.980469 -9.226562 C 7.25 -9.003906 7.507812 -8.765625 7.730469 -8.511719 C 7.953125 -8.253906 8.128906 -8.015625 8.289062 -7.792969 L 9.65625 -9.179688 C 8.894531 -10.089844 8.113281 -10.726562 7.316406 -11.109375 C 6.519531 -11.492188 5.625 -11.683594 4.652344 -11.683594 C 3.921875 -11.683594 3.28125 -11.554688 2.757812 -11.332031 C 2.230469 -11.109375 1.800781 -10.820312 1.464844 -10.488281 C 1.117188 -10.136719 0.875 -9.769531 0.71875 -9.386719 C 0.558594 -9.003906 0.476562 -8.652344 0.476562 -8.351562 C 0.476562 -7.714844 0.621094 -7.171875 0.910156 -6.710938 C 1.195312 -6.246094 1.546875 -5.847656 1.992188 -5.5 C 2.421875 -5.148438 2.882812 -4.84375 3.394531 -4.589844 C 3.90625 -4.320312 4.367188 -4.078125 4.796875 -3.855469 C 5.226562 -3.632812 5.59375 -3.410156 5.882812 -3.203125 C 6.167969 -2.980469 6.3125 -2.757812 6.3125 -2.503906 Z M 6.3125 -2.503906" transform="translate(301.33 269.233)" />
      </g>
    </g>
  </g>
</svg>